<?xml version="1.0" standalone="no"?>
<!DOCTYPE svg PUBLIC "-//W3C//DTD SVG 20010904//EN" "http://www.w3.org/TR/2001/REC-SVG-20010904/DTD/svg10.dtd">
<svg version="1.0" xmlns="http://www.w3.org/2000/svg" width="512" height="512" viewBox="0 0 512 512"
    preserveAspectRatio="xMidYMid meet">
    <g transform="translate(0.000000,512.000000) scale(0.100000,-0.100000)" fill="#c9d1d9" stroke="none">
        <path d="M4303 4477 c-73 -33 -133 -65 -133 -70 0 -6 68 -157 150 -337 83
-180 150 -330 150 -334 0 -4 -67 -155 -150 -335 -82 -180 -150 -332 -150 -337
0 -7 175 -93 270 -132 4 -1 51 93 105 210 53 117 98 214 99 215 1 1 46 -94
100 -213 55 -118 102 -213 106 -212 101 42 270 125 270 133 0 6 -61 143 -136
305 -74 162 -142 311 -151 332 l-14 36 150 329 c83 181 151 334 151 339 0 8
-193 102 -266 131 -6 2 -53 -87 -110 -211 -54 -118 -99 -214 -100 -213 -1 1
-45 96 -97 212 -53 115 -100 210 -104 211 -4 1 -68 -25 -140 -59z" />
        <path d="M0 3735 l0 -755 300 0 300 0 0 155 0 155 -150 0 -150 0 0 600 0 600
-150 0 -150 0 0 -755z" />
        <path d="M1241 4474 c-127 -34 -231 -121 -290 -244 l-36 -75 -3 -587 -3 -588
151 0 150 0 0 300 0 300 150 0 150 0 0 -300 0 -300 150 0 150 0 0 570 c0 548
-1 573 -20 631 -26 76 -55 122 -114 180 -112 110 -281 154 -435 113z m172
-308 c69 -29 96 -90 97 -213 l0 -63 -150 0 -150 0 0 63 c1 117 26 177 91 209
41 22 69 23 112 4z" />
        <path d="M2110 4335 l0 -155 150 0 150 0 0 -600 0 -600 150 0 150 0 0 600 0
600 150 0 150 0 0 155 0 155 -450 0 -450 0 0 -155z" />
        <path d="M3310 3735 l0 -755 300 0 300 0 0 155 0 155 -150 0 -150 0 0 145 0
145 150 0 150 0 0 155 0 155 -150 0 -150 0 0 145 0 145 150 0 150 0 0 155 0
155 -300 0 -300 0 0 -755z" />
        <path d="M331 2675 c-129 -37 -231 -123 -290 -245 l-36 -75 0 -720 0 -720 32
-68 c61 -128 174 -221 309 -253 89 -21 188 -16 658 36 741 81 968 95 1556 94
594 0 850 -16 1605 -99 517 -58 602 -56 727 12 69 37 153 130 191 210 l32 68
3 702 c2 687 2 703 -18 763 -51 151 -165 256 -321 296 -83 22 -201 16 -624
-30 -439 -48 -492 -53 -715 -71 -800 -61 -1458 -42 -2475 71 -382 42 -558 50
-634 29z m569 -1040 l0 -295 -150 0 -150 0 0 295 0 295 150 0 150 0 0 -295z
m610 0 l0 -295 -150 0 -150 0 0 295 0 295 150 0 150 0 0 -295z m600 0 l0 -295
-150 0 -150 0 0 295 0 295 150 0 150 0 0 -295z m600 0 l0 -295 -150 0 -150 0
0 295 0 295 150 0 150 0 0 -295z m600 0 l0 -295 -150 0 -150 0 0 295 0 295
150 0 150 0 0 -295z m600 0 l0 -295 -150 0 -150 0 0 295 0 295 150 0 150 0 0
-295z m610 0 l0 -295 -150 0 -150 0 0 295 0 295 150 0 150 0 0 -295z" />
    </g>
</svg>
